Lana Del Rey - Summertime Sadness {M4A+MP4} (1080p) x264 [VX] [P2PDL]
 
http://www.shotpix.com/images/92519637342825272128.png

Release Title: Lana Del Rey - Summertime Sadness (2012)

                            1080p Full HD MP4 Video
                                       +
                            128 Kbps/VBR M4A Audio

General
Format                         : MPEG-4
Format profile                 : Base Media / Version 2
Codec ID                       : mp42
File size                      : 45.0 MiB
Duration                       : 4mn 42s

Video
ID                             : 1
Format                         : AVC
Codec ID/Info                  : Advanced Video Coding
Duration                       : 4mn 42s
Bit rate mode                  : Variable
Bit rate                       : 1 200 Kbps
Width                          : 1 920 pixels
Height                         : 1 080 pixels
Display aspect ratio           : 16:9
Frame rate mode                : Constant
Frame rate                     : 25.000 fps
Stream size                    : 40.5 MiB (90%)
Writing library                : x264 core 128

Audio
ID                             : 2
Format                         : AAC
Duration                       : 4mn 42s
Bit rate mode                  : Variable
Bit rate                       : 128 Kbps
Sampling rate                  : 44.1 KHz
Stream size                    : 4.32 MiB (10%)

Subtitles                      : No

Screens:
 
http://www.shotpix.com/images/50154915591227063926.jpg 
http://www.shotpix.com/images/18266464156340348857.jpg

Thumbs:
 
http://www.shotpix.com/images/83132198305212601681.jpg

------------------------------------------------------------------------

Notes:

* Recommended to use latest version VLC Media Player.
* Install shark007 codecs in case of any kind of problem in playback (For non-VLC Media Player users).
* Alternatively, install Core AVC codecs, the fastest decoder that there is coupled with Community Center Codec Pack and play on Windows Media Player Classic.

Greets to: VYTO, a2zRG, stumpie1971, Sheychi staff members at ExtraTorrent, TPB,KAT, 1337x, PublicHD, Ahashare, TorrentMafia, Limetorrents, BTScene, P2PDL, and all others

Encoder Notes: Looking For Early Access To Anything You Can Provide DVDScr, R5, DVDRips, BluRay, Direct Audio, Early Music
Releases, Seedboxes, Links, Dedicated Servers anything u can provide, Advance / Promo CDs/DVDs. If You Got anything to
offer contact me at "prg@hush.com"

Facebook Fan Page: www . facebook . com / p2pdl